PathFileType	4	(X/Y/Z)	 s03c0001.trc
DataRate	CameraRate	NumFrames	NumMarkers	Units	OrigDataRate	OrigDataStartFrame	OrigNumFrames
200	200	4	49	mm	200	1251	2000
Frame#	Time	racr			lacr			c7			jug			rlel			rdr			llel			ldr			s2			lic			ric			lasi			rasi			rpsi			lpsi			rgt			lgt			rth1			rth2			rth3			rth4			rlfc			rmfc			rsh1			rsh2			rsh3			rsh4			rlmal			rmmal			rcal			rtoe			rmt5			rmt1			lth1			lth2			lth4			lth3			llfc			lmfc			lsh1			lsh2			lsh3			lsh4			llmal			lmmal			lcal			ltoe			lmt1			lmt5			
		X1	Y1	Z1	X2	Y2	Z2	X3	Y3	Z3	X4	Y4	Z4	X5	Y5	Z5	X6	Y6	Z6	X7	Y7	Z7	X8	Y8	Z8	X9	Y9	Z9	X10	Y10	Z10	X11	Y11	Z11	X12	Y12	Z12	X13	Y13	Z13	X14	Y14	Z14	X15	Y15	Z15	X16	Y16	Z16	X17	Y17	Z17	X18	Y18	Z18	X19	Y19	Z19	X20	Y20	Z20	X21	Y21	Z21	X22	Y22	Z22	X23	Y23	Z23	X24	Y24	Z24	X25	Y25	Z25	X26	Y26	Z26	X27	Y27	Z27	X28	Y28	Z28	X29	Y29	Z29	X30	Y30	Z30	X31	Y31	Z31	X32	Y32	Z32	X33	Y33	Z33	X34	Y34	Z34	X35	Y35	Z35	X36	Y36	Z36	X37	Y37	Z37	X38	Y38	Z38	X39	Y39	Z39	X40	Y40	Z40	X41	Y41	Z41	X42	Y42	Z42	X43	Y43	Z43	X44	Y44	Z44	X45	Y45	Z45	X46	Y46	Z46	X47	Y47	Z47	X48	Y48	Z48	X49	Y49	Z49	
1251	6.2550	263.603278	1572.963501	581.331165	259.235848	1588.414556	200.365414	197.375371	1607.930489	393.719667	364.648103	1556.509788	392.487309	189.125640	1302.040130	691.428352	283.280932	1123.569653	888.056847	185.949148	1316.939527	94.925117	268.060222	1126.513073	-110.471762	160.754647	1067.699778	373.449133	297.085276	1165.591689	194.073439	288.439224	1151.442413	565.632183	358.998837	1103.998934	236.755313	358.885479	1100.251980	519.511816	162.182149	1108.260993	422.871725	166.398243	1116.696266	340.025948	270.809740	1008.973814	560.660795	283.962246	1015.628360	186.835786	283.674269	870.415490	575.956962	314.294377	786.851896	570.231637	304.149780	703.638332	555.664266	350.328837	792.295883	565.595540	298.102193	577.447910	524.026687	329.399470	556.791248	417.732781	243.376799	412.881099	552.161035	254.422246	323.733264	547.779569	218.984930	243.410047	542.065331	288.611866	320.319624	530.320625	208.974226	104.291339	530.918429	248.858053	121.915379	449.944675	165.252706	56.166705	483.301747	468.586400	90.818345	503.187204	353.546611	43.333666	563.390298	378.826463	80.841704	453.913806	295.280700	865.963256	174.120396	318.594215	782.807124	181.597271	354.619821	784.720274	183.626777	297.003687	698.265065	195.436517	310.707182	577.182690	220.773142	332.182625	559.241012	333.935755	251.615858	413.546340	184.560298	264.226459	329.353751	192.842855	229.454882	244.746542	196.330221	298.498734	325.277905	211.097160	220.847431	110.662528	205.991991	259.069248	124.948842	292.713330	172.566190	55.110963	258.010785	479.535064	92.415699	234.358896	389.195666	73.282895	285.976833	358.187900	50.561189	172.364591	
1252	6.2600	263.572345	1572.959788	581.334794	259.204046	1588.409027	200.378277	197.325297	1607.928198	393.762159	364.613637	1556.504819	392.499799	189.080284	1302.035439	691.413871	283.232466	1123.554047	888.050718	185.918912	1316.939941	94.942797	268.057994	1126.496306	-110.464446	160.735267	1067.709297	373.465225	297.083909	1165.582769	194.085057	288.398500	1151.426316	565.639387	358.996343	1104.001417	236.775017	358.861822	1100.258177	519.532668	162.158045	1108.259191	422.870768	166.374037	1116.700030	340.043808	270.778594	1008.971659	560.674335	283.945447	1015.619043	186.840502	283.644821	870.422115	575.983080	314.284566	786.846842	570.232384	304.133866	703.648989	555.667846	350.316325	792.307811	565.591117	298.074292	577.445222	524.022576	329.394920	556.797596	417.743464	243.369930	412.875628	552.156582	254.403932	323.715843	547.793971	218.990146	243.404286	542.053546	288.589176	320.309164	530.322087	208.969222	104.283700	530.922944	248.835450	121.898879	449.938487	165.280560	56.150873	483.304630	468.558471	90.835790	503.199844	353.556794	43.352593	563.389758	378.809796	80.840031	453.922431	295.283277	865.969949	174.130831	318.572789	782.795382	181.587104	354.617207	784.729081	183.641008	297.002534	698.272702	195.442774	310.882789	577.117367	220.418186	332.235543	559.256764	333.959973	251.608042	413.542069	184.574454	264.220328	329.351124	192.835901	229.432348	244.741364	196.323125	298.516218	325.279288	211.113601	220.860958	110.653506	205.981099	259.060886	124.963285	292.717654	172.563900	55.087599	258.022182	479.523594	92.408322	234.360287	389.185875	73.276286	285.980660	358.160849	50.568632	172.354631	
1253	6.2650	263.536311	1572.947062	581.356129	259.168205	1588.393739	200.397214	197.282448	1607.943126	393.770076	364.566532	1556.498588	392.516479	189.021990	1302.049106	691.431724	283.185496	1123.541083	888.049980	185.887265	1316.936634	94.961646	268.057548	1126.496514	-110.431836	160.703769	1067.697382	373.467168	297.057006	1165.581712	194.088115	288.371007	1151.435821	565.633378	358.982045	1103.999304	236.777988	358.852678	1100.243967	519.524905	162.136882	1108.258256	422.887107	166.356044	1116.696206	340.051962	270.758191	1008.978360	560.676553	283.935786	1015.629376	186.834670	283.623513	870.416631	575.973678	314.244639	786.844609	570.225956	304.093390	703.650730	555.668642	350.287150	792.294989	565.598354	298.061682	577.446383	524.024304	329.396798	556.809369	417.748601	243.339510	412.890592	552.151330	254.391165	323.722519	547.773689	218.995393	243.407208	542.038560	288.580232	320.324656	530.321350	208.970143	104.288251	530.911340	248.861610	121.920757	449.928997	165.252730	56.166736	483.301749	468.581971	90.838858	503.195186	353.544222	43.335488	563.390191	378.810755	80.837347	453.924843	295.272519	865.966062	174.138340	318.570839	782.797802	181.594030	354.606532	784.715327	183.617544	296.980739	698.273473	195.434095	310.868718	577.110600	220.417867	332.162079	559.239793	333.959255	251.605860	413.551934	184.565579	264.207941	329.367556	192.842103	229.421608	244.764325	196.340490	298.499714	325.287581	211.103102	220.881043	110.642389	205.989280	259.053418	124.959651	292.718732	172.571772	55.086645	258.028352	479.568043	92.446489	234.370067	389.198267	73.271206	285.987240	358.207500	50.571849	172.366489	
1254	6.2700	263.509790	1572.934914	581.331544	259.167214	1588.402035	200.385954	197.262331	1607.942828	393.761922	364.554543	1556.503269	392.516968	188.982396	1302.019788	691.420669	283.119525	1123.528381	888.047088	185.869985	1316.930052	94.978750	268.048803	1126.489932	-110.414954	160.672818	1067.705689	373.465834	297.049599	1165.581001	194.118332	288.340483	1151.431219	565.657052	358.947164	1103.992427	236.781227	358.829637	1100.264703	519.535819	162.135732	1108.241203	422.903944	166.349445	1116.682952	340.044252	270.737723	1008.970908	560.674417	283.934505	1015.626389	186.841927	283.600147	870.415707	575.974842	314.226002	786.847284	570.232990	304.075364	703.655263	555.657634	350.276315	792.298678	565.604565	298.025763	577.452331	524.030168	329.381456	556.822277	417.749295	243.328892	412.878270	552.143513	254.385795	323.730259	547.780320	218.980637	243.404273	542.060890	288.569511	320.329461	530.322575	208.956647	104.304064	530.915332	248.877795	121.897199	449.935300	165.280582	56.150900	483.304631	468.559242	90.837098	503.193220	353.568703	43.343939	563.391687	378.823027	80.839754	453.921369	295.260755	865.973121	174.141853	318.553071	782.793798	181.603519	354.590886	784.724230	183.645762	296.978537	698.279794	195.439174	310.655819	577.207917	220.738354	332.145178	559.243579	333.972472	251.601516	413.545502	184.574261	264.217894	329.349246	192.866654	229.417349	244.755969	196.328980	298.502974	325.274303	211.118077	220.860755	110.658601	205.991178	259.053422	124.959643	292.718727	172.566980	55.097455	258.025451	479.554018	92.433781	234.383483	389.188426	73.274182	286.001976	358.198234	50.569023	172.354612	
